<svg xmlns="http://www.w3.org/2000/svg" xmlns:xlink="http://www.w3.org/1999/xlink" version="1.1" width="1000" height="1000" viewBox="0 0 1000 1000" xml:space="preserve">
<desc>Created with Fabric.js 3.5.0</desc>
<defs>
</defs>
<rect x="0" y="0" width="100%" height="100%" fill="#ffffff"/>
<g transform="matrix(0.4733 0 0 0.4733 319.6902 399.1903)" id="311785">
<path style="stroke: none; stroke-width: 1; stroke-dasharray: none; stroke-linecap: butt; stroke-dashoffset: 0; stroke-linejoin: miter; stroke-miterlimit: 4; is-custom-font: none; font-file-url: none; fill: rgb(0,0,0); fill-rule: nonzero; opacity: 1;" vector-effect="non-scaling-stroke" transform=" translate(-480.165, 460.165)" d="M 500.03 -41.83 q -21.03 0 -36.28 -14.78 q -15.25 -14.77 -15.25 -35.8 q 0 -10.09 3.58 -19.17 q 3.59 -9.09 11.09 -16.09 L 500 -161.83 l 37.17 34.16 q 7.16 7 10.91 16.35 q 3.75 9.34 3.75 19.1 q 0 20.84 -15.38 35.61 q -15.39 14.78 -36.42 14.78 Z m -140.03 -64 l -34.83 -34.84 L 436 -251.83 l 35.17 35.16 L 360 -105.83 Z m 260 -58 l -52.83 -52.84 L 620 -269.83 l 53.17 53.16 L 620 -163.83 Z m -360 0 l -52.83 -52.84 L 260 -269.83 l 53.17 53.16 L 260 -163.83 Z m 33.33 -171.34 q -87.48 0 -149.49 -61.98 q -62.01 -61.98 -62.01 -149.43 q 0 -79.75 55.75 -141.42 q 55.75 -61.67 138.59 -69.17 q 31.55 -56 85.07 -88.66 q 53.51 -32.67 119.19 -32.67 q 89.57 0 152.48 57.5 t 76.86 142.83 q 75.4 4.67 122.06 54.28 q 46.67 49.6 46.67 117.13 q 0 70.93 -50.22 121.26 t -121.61 50.33 H 293.33 Z m 0 -63.33 h 413.34 q 45.57 0 77.03 -31.78 q 31.47 -31.77 31.47 -76.75 q 0 -44.97 -31.47 -76.55 q -31.46 -31.59 -77.03 -31.59 H 648.5 v -31.5 q 0 -70.16 -49.17 -119.33 q -49.16 -49.17 -119.15 -49.17 q -50.9 0 -92.79 27.34 Q 345.5 -760.5 325.5 -714 l -7.95 18.83 h -26.22 q -61.16 2 -103.66 44.93 t -42.5 103.48 q 0 61.38 43.39 104.82 q 43.39 43.44 104.77 43.44 Z M 480 -606.67 Z" stroke-linecap="round"/>
</g>
<g transform="matrix(0.4999 0 0 0.4999 584.7138 590.1756)" id="494390">
<path style="stroke: none; stroke-width: 1; stroke-dasharray: none; stroke-linecap: butt; stroke-dashoffset: 0; stroke-linejoin: miter; stroke-miterlimit: 4; is-custom-font: none; font-file-url: none; fill: rgb(0,0,0); fill-rule: nonzero; opacity: 1;" vector-effect="non-scaling-stroke" transform=" translate(-480, 480)" d="M 697 -621.46 h 56.15 v -56.15 H 697 v 56.15 Z m 0 167.92 h 56.15 v -56.15 H 697 v 56.15 Z m 0 167.31 h 56.15 v -56.15 H 697 v 56.15 Z M 631.38 -140 v -45.39 h 223.23 v -589.22 H 456.92 v 112.76 l -45.38 -31.61 V -820 H 900 v 680 H 631.38 Z M 60 -140 v -362.69 l 253.31 -180.92 L 566 -502.82 V -140 H 368.23 v -190.62 H 258.38 V -140 H 60 Z m 45.39 -45.39 H 213 V -376 h 200.61 v 190.61 h 107.01 v -293.99 L 313.31 -626.92 L 105.39 -478.86 v 293.47 Z m 525.99 -353.84 Z M 413.61 -185.39 V -376 H 213 v 190.61 V -376 h 200.61 v 190.61 Z" stroke-linecap="round"/>
</g>
</svg>