<?xml version="1.0" standalone="no"?>
<svg version="1.0" xmlns="http://www.w3.org/2000/svg"
 width="630" height="630">

<g transform="translate(0.000000,632.000000) scale(0.100000,-0.100000)"
fill="#000000" stroke="none">

<path d="M1480 5784 c-86 -11 -242 -48 -315 -76 -226 -87 -419 -236 -638 -495
-19 -21 -19 -22 22 -42 22 -12 48 -21 58 -21 9 0 67 51 128 113 175 178 308
268 494 337 112 41 230 60 371 60 188 0 340 -36 516 -121 95 -46 275 -168 321
-218 19 -20 25 -22 55 -12 18 6 74 18 123 26 110 19 222 55 335 107 193 89
318 123 509 139 345 27 695 -63 981 -253 205 -137 392 -329 496 -509 l45 -78
92 5 c80 5 279 -15 293 -29 2 -2 -5 -35 -16 -73 -25 -87 -27 -215 -4 -238 21
-22 80 -66 86 -66 3 0 8 55 11 123 5 116 19 197 35 197 10 0 186 -154 330
-287 l112 -105 0 -434 0 -434 -25 0 c-26 0 -186 16 -262 26 l-43 5 0 323 0
324 -57 47 c-32 26 -129 114 -215 197 l-158 149 -354 -1 -354 -1 -16 58 c-85
305 -372 547 -725 608 -108 19 -320 19 -441 0 -167 -27 -263 -30 -317 -10
l-46 18 -35 -38 c-34 -36 -34 -38 -15 -56 31 -31 126 -59 202 -59 38 0 134 10
213 21 195 29 382 23 513 -16 199 -59 356 -170 456 -323 59 -89 96 -196 90
-260 -1 -7 -48 -61 -105 -120 -102 -105 -161 -173 -168 -193 -2 -6 -75 -14
-175 -19 -268 -14 -534 -50 -948 -130 -82 -16 -185 -32 -228 -35 l-78 -7 3
-57 3 -56 65 3 c69 2 200 24 440 72 250 51 848 115 896 96 12 -4 14 -50 14
-270 l0 -266 -22 -4 c-13 -3 -90 -12 -173 -21 -186 -20 -393 -55 -591 -100
-84 -19 -161 -35 -172 -35 -35 0 -47 -25 -33 -70 11 -36 15 -40 44 -40 18 0
97 14 177 31 316 66 637 110 950 130 231 14 1010 15 1225 0 199 -13 386 -29
433 -37 l32 -5 0 -164 0 -164 -32 -5 c-18 -3 -159 -7 -313 -10 -342 -6 -555
-26 -1105 -102 -167 -23 -306 -36 -375 -37 -104 0 -118 2 -250 45 -790 254
-1068 329 -1685 452 -128 26 -287 38 -313 25 -35 -18 -67 -51 -67 -69 0 -14
14 -19 78 -24 97 -9 300 -46 468 -86 71 -17 212 -49 314 -71 102 -22 235 -53
295 -69 107 -29 651 -198 885 -276 113 -37 118 -38 260 -37 80 0 204 7 275 16
72 9 252 32 401 51 438 56 635 70 1039 70 299 1 379 -2 475 -17 231 -36 361
-76 677 -211 72 -31 139 -56 147 -56 10 0 16 9 16 24 0 13 3 43 6 68 l6 45
-51 7 c-28 4 -104 30 -169 58 -64 28 -155 62 -201 74 -46 13 -86 25 -88 28 -3
2 8 11 25 20 19 10 53 14 100 13 63 -2 73 1 97 23 33 31 125 217 125 254 0 15
-9 44 -20 66 -11 22 -20 49 -20 61 0 13 -17 56 -37 97 -27 56 -48 83 -82 108
-58 42 -118 59 -174 49 -50 -9 -74 -9 -148 0 -35 5 -70 3 -92 -4 -52 -18 -115
-85 -128 -138 l-12 -44 -73 7 -74 7 -2 -37 c-1 -20 -2 -44 -2 -53 -1 -13 14
-22 61 -34 98 -25 113 -39 113 -103 0 -90 53 -136 173 -151 31 -4 60 -11 63
-16 2 -5 -2 -22 -11 -39 -18 -36 -38 -38 -159 -15 -45 8 -128 18 -186 23
l-105 7 0 645 c0 738 -11 675 101 594 l66 -49 -5 -60 c-3 -33 -15 -130 -26
-215 -28 -207 -28 -220 8 -254 40 -39 65 -32 69 19 7 104 63 517 71 533 5 10
7 23 3 28 -4 5 -63 46 -132 89 -69 43 -127 81 -130 82 -14 11 58 105 222 292
l30 34 37 -19 c20 -10 77 -59 126 -109 100 -99 134 -156 171 -284 l22 -76 56
-3 c56 -3 56 -3 56 26 0 35 -24 117 -57 196 -51 123 -158 248 -280 328 -48 32
-60 45 -53 57 4 9 78 96 164 194 86 98 156 182 156 187 0 10 -64 40 -84 40 -6
0 -51 -46 -101 -102 -49 -56 -112 -127 -140 -158 -27 -30 -62 -71 -76 -90
l-26 -34 -94 19 c-109 21 -369 24 -507 5 -128 -17 -132 -21 -80 -73 l31 -32
261 -7 c144 -3 273 -10 288 -15 l28 -8 -53 -66 c-88 -110 -165 -194 -190 -208
-21 -11 -31 -10 -76 13 -28 15 -93 62 -144 104 -277 234 -327 264 -491 292
-65 11 -141 20 -170 20 -51 0 -51 0 -83 53 -51 84 -183 237 -280 323 -199 175
-397 292 -623 368 -172 57 -276 75 -470 82 -277 11 -431 -21 -748 -153 -153
-63 -316 -113 -373 -113 -19 0 -63 26 -141 83 -243 177 -461 255 -733 262 -71
2 -146 1 -165 -1z m3359 -1424 l278 0 59 -57 c58 -55 217 -198 268 -240 14
-12 26 -26 26 -31 0 -12 -446 -26 -534 -17 l-68 8 -146 146 c-175 174 -205
207 -179 198 10 -4 144 -7 296 -7z m-243 -213 c93 -98 170 -185 172 -193 3
-12 -41 -14 -305 -12 l-308 3 -3 56 -3 56 94 104 c100 111 164 172 176 167 4
-2 84 -83 177 -181z m884 -472 l0 -235 -47 0 c-83 0 -84 2 -151 136 l-62 124
-125 0 -125 0 0 -109 c0 -60 -3 -116 -6 -125 -4 -11 -19 -16 -50 -16 l-44 0 0
230 0 230 305 0 305 0 0 -235z m-722 -32 l-3 -198 -65 0 -65 0 -5 115 -5 115
-95 2 c-116 2 -125 -3 -187 -100 -66 -104 -100 -137 -140 -137 l-33 0 0 200 0
200 300 0 300 0 -2 -197z m417 -114 c24 -41 42 -76 40 -79 -2 -3 -33 -3 -70
-2 l-68 4 7 75 c3 41 8 79 12 84 11 18 36 -8 79 -82z m-665 -13 c0 -72 0 -72
-95 -78 -51 -3 -49 8 17 84 66 77 78 76 78 -6z m2122 -337 c16 -35 19 -36 83
-41 36 -3 69 -9 73 -13 9 -9 -56 -64 -85 -71 -13 -4 -33 2 -50 14 -15 10 -40
27 -55 36 -16 9 -28 22 -28 30 0 27 -35 43 -94 45 -66 2 -76 5 -76 27 0 12 18
14 107 12 l108 -3 17 -36z"/>
<path d="M4338 4124 c-5 -4 -8 -27 -8 -51 l0 -43 76 0 76 0 -7 38 c-3 20 -10
40 -13 44 -11 10 -116 21 -124 12z"/>
<path d="M2909 5298 c-24 -17 -59 -45 -77 -62 -26 -24 -40 -30 -67 -27 -31 2
-35 0 -35 -21 0 -22 -122 -155 -257 -280 l-40 -37 -49 33 c-145 100 -362 238
-383 243 -18 4 -28 -1 -46 -23 -13 -16 -21 -32 -19 -35 2 -4 94 -70 203 -149
110 -78 216 -159 236 -181 l36 -40 -3 -97 -3 -97 -152 1 -153 0 0 -53 0 -53
73 0 c41 0 108 -3 150 -6 l77 -7 0 -255 0 -254 -102 8 c-57 5 -121 8 -143 9
l-40 0 -3 -51 -3 -52 53 -6 c29 -3 94 -8 144 -12 l92 -6 3 -229 c3 -134 8
-232 14 -238 6 -5 30 -11 55 -13 l45 -3 3 541 2 541 473 -1 472 -1 0 48 0 48
-375 4 c-206 2 -418 6 -471 10 l-97 8 -7 118 c-8 143 -7 146 105 275 41 47 98
114 125 149 28 34 89 107 138 162 108 125 118 156 26 91z"/>
<path d="M1420 4250 l0 -40 236 0 c198 0 239 -2 248 -15 17 -23 33 -5 40 48
l7 47 -265 0 -266 0 0 -40z"/>
<path d="M1295 4151 l-50 -6 0 -90 0 -90 397 0 c305 0 400 3 410 13 16 16 23
134 9 161 -12 21 -14 21 -364 19 -194 0 -374 -4 -402 -7z"/>
<path d="M1055 4063 c-115 -24 -312 -92 -446 -154 -70 -31 -145 -63 -168 -70
l-41 -12 0 -55 0 -55 48 5 c28 3 99 27 167 57 190 84 322 132 435 158 58 14
111 27 118 29 8 2 12 23 12 59 0 54 -1 55 -27 54 -16 0 -59 -7 -98 -16z"/>
<path d="M1211 3921 c-15 -10 -28 -134 -17 -175 l6 -26 415 0 415 0 0 105 0
105 -402 0 c-222 0 -409 -4 -417 -9z"/>
<path d="M1320 3680 l-165 -5 -3 -75 c-2 -41 0 -90 3 -107 l6 -33 117 0 118 0
16 -27 c9 -16 50 -62 92 -103 l75 -75 1 -282 0 -283 60 0 60 0 0 284 0 284 25
30 c14 17 46 44 72 61 l46 31 135 -3 134 -2 24 28 c23 27 24 35 24 158 l0 129
-337 -2 c-186 -1 -412 -5 -503 -8z m440 -211 c0 -3 -12 -11 -27 -18 -15 -7
-33 -21 -40 -31 -7 -10 -29 -24 -48 -30 -33 -11 -38 -9 -78 21 -48 38 -58 50
-51 61 5 8 244 6 244 -3z"/>
<path d="M1185 3379 c-221 -27 -501 -72 -511 -82 -2 -2 -4 -553 -4 -1225 l-2
-1222 2864 -1 c1574 -1 3023 -1 3219 0 l356 1 8 747 c7 696 6 748 -10 759 -20
15 -280 78 -385 94 -233 34 -573 31 -1093 -11 -138 -11 -373 -23 -522 -26
-298 -6 -492 7 -776 52 -85 14 -168 25 -185 25 -24 0 -33 5 -37 21 -7 27 -29
20 -41 -14 -35 -98 192 -164 679 -198 216 -15 510 -6 935 27 226 18 409 26
600 27 290 1 346 -4 578 -50 l132 -27 0 -98 c0 -54 -2 -98 -4 -98 -2 0 -58 11
-124 25 -238 49 -360 59 -722 59 -463 0 -725 -31 -1038 -125 -141 -42 -189
-63 -255 -110 -39 -28 -42 -29 -54 -12 -65 93 -143 163 -262 237 -92 56 -185
96 -365 156 l-139 46 -18 55 c-14 42 -30 65 -75 107 -81 74 -145 103 -246 111
-78 7 -90 11 -202 74 -152 86 -203 101 -320 95 -100 -6 -148 -21 -242 -79 -34
-20 -85 -42 -115 -48 -65 -14 -76 -20 -98 -57 -17 -28 -20 -29 -97 -29 -69 -1
-87 -5 -140 -32 -60 -31 -174 -126 -164 -136 6 -6 335 -24 680 -37 478 -18
819 -77 1195 -207 236 -82 402 -179 520 -304 36 -38 65 -74 65 -79 0 -5 -21
-12 -47 -15 -114 -16 -289 -47 -392 -70 l-111 -25 -122 59 c-242 115 -461 202
-861 337 -725 245 -1256 379 -1662 419 -88 9 -295 20 -460 24 -166 4 -306 10
-313 15 -9 5 -10 85 -6 324 3 174 5 322 4 328 0 16 181 49 400 74 96 11 192
23 213 26 38 6 38 6 20 26 -10 12 -36 34 -57 49 -42 32 -63 33 -191 18z m77
-939 c372 -19 634 -61 1043 -165 513 -131 1192 -358 1615 -540 85 -37 161 -69
168 -72 28 -12 5 -21 -120 -47 -165 -35 -642 -153 -973 -242 -283 -76 -343
-90 -349 -83 -3 2 0 25 5 49 13 56 5 103 -27 157 -55 95 -208 190 -324 200
-33 3 -60 9 -60 13 0 19 -82 86 -137 112 -102 48 -205 61 -453 55 -268 -5
-321 -19 -406 -101 -56 -54 -61 -68 -55 -153 2 -31 -2 -34 -61 -61 -219 -101
-258 -354 -74 -479 l41 -28 267 -3 267 -3 25 -34 c14 -18 26 -36 26 -39 0 -8
-753 -7 -829 0 l-61 7 0 456 c0 251 3 581 7 734 l6 277 128 0 c70 0 219 -5
331 -10z m5722 -742 c3 -50 6 -234 6 -410 l0 -318 -306 0 -306 0 49 38 c26 21
65 57 86 80 31 35 37 49 37 87 0 37 -6 52 -35 84 -52 58 -182 117 -316 146
-107 22 -144 35 -103 35 29 0 64 28 64 51 0 14 -13 26 -43 39 -159 71 -425 77
-777 19 -125 -21 -197 -44 -234 -77 -21 -19 -67 -112 -61 -122 3 -4 42 -10 87
-14 93 -8 168 -24 168 -37 0 -10 -33 -15 -180 -29 -201 -18 -321 -59 -360
-123 -24 -38 -26 -110 -6 -149 l15 -28 -1432 1 -1432 0 55 20 c89 32 255 75
575 149 165 38 395 94 510 124 1079 279 1350 341 1685 390 456 66 633 85 1020
111 300 20 333 20 821 23 l406 2 7 -92z m-5401 -304 c31 -6 40 -13 52 -41 l15
-34 81 7 81 7 -7 -34 c-5 -19 -9 -50 -10 -69 -3 -47 -32 -51 -87 -11 -24 17
-67 35 -96 42 -42 9 -65 22 -112 66 -33 30 -60 59 -60 64 0 10 87 12 143 3z
m292 -334 c-29 -12 -108 -12 -100 0 3 6 32 10 63 9 41 0 51 -3 37 -9z"/>
</g>
</svg>
