<svg width="1049" height="337" viewBox="0 0 1049 337" fill="none" xmlns="http://www.w3.org/2000/svg">
<path fill-rule="evenodd" clip-rule="evenodd" d="M463.102 2.28239C456.219 4.76139 449.489 8.91339 444.427 13.8044C440.445 17.6534 433.768 26.5724 432.98 29.0974C432.142 31.7844 430.768 32.8034 427.957 32.8244C423.908 32.8534 411.454 40.1544 404.554 46.5414C396.609 53.8974 391.577 61.5944 387.883 72.0414C384.067 82.8314 384.05 97.2254 387.84 108.339C391.415 118.821 395.203 125.27 402.266 132.899C412.721 144.192 422.677 150.297 436.315 153.779C456.505 158.934 476.838 153.505 491.033 139.17L497.187 132.955L498.853 135.775C499.769 137.326 503.146 141.027 506.357 144C531.085 166.894 570.536 164.56 593.825 138.825C600.345 131.62 604.561 124.014 607.582 114.006C610.558 104.145 609.998 87.7564 606.342 77.7644C603.179 69.1204 595.593 57.8374 589.472 52.6764C586.772 50.4004 583.467 46.6674 582.128 44.3834C578.189 37.6604 571.8 31.8354 564.693 28.4864C558.55 25.5914 557.259 25.3574 547.55 25.3804C539.031 25.4004 536.189 25.8014 532.487 27.5064L527.924 29.6084L525.531 25.0984C521.475 17.4524 512.407 9.31339 502.701 4.60839C494.216 0.494389 493.82 0.408395 482.05 0.0973949C471.296 -0.186605 469.329 0.0403924 463.102 2.28239ZM498.082 9.8554C506.469 14.1124 514.395 22.1234 518.645 30.6384C525.534 44.4434 528.55 47.2984 528.55 40.0164C528.55 36.4634 528.885 36.0224 533.3 33.7664C537.35 31.6974 539.451 31.3414 547.55 31.3504C556.099 31.3594 557.628 31.6574 562.825 34.3214C566.002 35.9504 569.827 38.5874 571.325 40.1824L574.05 43.0814L570.865 41.4684C566.303 39.1574 554.773 37.3844 550.063 38.2694C546.333 38.9704 546.2 39.1104 548.004 40.4294C549.064 41.2044 550.742 41.8394 551.732 41.8394C554.735 41.8394 568.7 46.9614 574.55 50.2074C594.774 61.4304 604.452 84.9704 598.709 108.967C596.457 118.378 592.963 124.496 585.228 132.576C578.111 140.011 571.623 143.872 561.45 146.727C551.916 149.402 544.184 149.402 534.65 146.727C524.592 143.905 517.476 139.728 509.07 131.716L502.09 125.062L504.32 116.56C511.54 89.0314 499.827 65.0044 475.228 56.8814C466.758 54.0844 456.874 54.4074 448.253 57.7624C441.308 60.4654 432.963 68.2074 429.719 74.9574C426.874 80.8764 425.904 90.9794 427.53 97.7574C429.963 107.898 439.552 116.513 450.427 118.327C455.905 119.241 455.27 117.379 449.58 115.847C447.306 115.235 443.82 112.98 441.176 110.41C430.491 100.025 431.842 81.7944 444.096 71.0074C449.744 66.0364 455.538 64.3804 464.623 65.1424C476.671 66.1524 486.622 73.5954 492.291 85.8394C495.835 93.4924 495.987 106.632 492.63 115.183C488.02 126.927 477.592 136.354 463.55 141.472C448.064 147.115 432.437 144.401 418.054 133.57C394.059 115.501 388.401 85.6504 404.363 61.3394C414.881 45.3184 426.285 37.8984 440.55 37.7924L447.05 37.7444L442.55 36.1834C440.075 35.3254 437.893 34.4774 437.701 34.2984C436.607 33.2824 443.813 22.8864 448.83 18.2404C459.212 8.62839 467.152 5.73138 481.794 6.21338C490.509 6.50038 492.23 6.8854 498.082 9.8554ZM47.5495 186.819C28.1975 189.344 13.8386 198.16 7.99355 211.105C5.64155 216.314 5.18556 218.654 5.22056 225.339C5.27856 236.504 8.11555 243.565 15.5156 250.965C24.6006 260.05 35.5446 264.745 53.8976 267.43C67.3086 269.393 73.8466 271.689 79.2906 276.35C87.9026 283.721 90.4535 296.207 85.1845 305.198C75.2245 322.194 38.8696 323.142 24.3156 306.786C21.9696 304.149 19.0165 300.624 17.7535 298.952C13.3325 293.097 3.35055 294.076 0.635549 300.63C-0.466451 303.292 -0.283449 304.227 2.36855 309.473C7.71755 320.052 18.4385 328.556 32.7145 333.543C42.3955 336.924 58.6235 337.763 69.5145 335.446C85.7395 331.993 98.1106 323.543 103.763 312.052C106.902 305.672 107.05 304.852 107.05 293.855C107.05 283.54 106.779 281.761 104.449 276.793C97.3535 261.666 83.7475 253.632 59.5495 250.28C43.5105 248.058 36.5666 245.649 31.2186 240.451C19.9456 229.495 23.0585 214.54 38.0495 207.64C42.4235 205.627 44.6145 205.339 55.5495 205.343C67.2595 205.347 68.3656 205.519 73.0496 208.069C79.3766 211.513 81.3266 213.214 86.0026 219.368C88.0796 222.102 90.7406 224.886 91.9146 225.554C95.3486 227.507 100.162 227.077 103.094 224.555C107.097 221.112 106.738 216.081 101.998 209.199C89.8986 191.632 70.8055 183.784 47.5495 186.819ZM530.05 186.759C506.211 189.78 490.819 201.604 487.639 219.339C484.046 239.377 497.152 257.265 520.55 264.258C523.575 265.162 530.763 266.606 536.523 267.468C549.367 269.389 555.925 271.757 561.414 276.454C567.269 281.467 569.872 286.936 569.924 294.339C569.999 304.966 564.055 312.418 552.228 316.524C544.519 319.2 527.955 318.922 520.445 315.991C512.221 312.782 506.404 308.56 503.181 303.46C499.398 297.475 497.479 295.864 493.329 295.191C488.742 294.446 484.071 296.906 482.722 300.776C480.268 307.814 492.209 322.857 505.592 329.587C535.289 344.522 575.196 335.328 586.342 310.982C592.707 297.079 590 277.984 580.112 267.039C572.05 258.116 560.404 253.059 541.633 250.33C524.88 247.895 518.242 245.584 513.029 240.37C501.989 229.331 505.173 214.487 520.05 207.64C524.422 205.628 526.62 205.339 537.55 205.339C554.688 205.339 557.907 206.98 571.64 222.723C574.602 226.119 575.861 226.839 578.835 226.839C584.094 226.839 587.985 223.202 587.849 218.411C587.677 212.325 579.085 201.365 569.433 194.92C559.006 187.957 544.431 184.936 530.05 186.759ZM115.754 189.489C110.939 193.422 111.094 194.128 132.023 263.852C149.678 322.669 151.981 329.619 154.631 332.089C156.674 333.993 158.648 334.839 161.05 334.839C163.426 334.839 165.481 333.973 167.574 332.089C170.435 329.514 171.388 326.448 182.558 283.849C190.881 252.109 195.007 237.978 196.209 237.099C198.801 235.204 201.336 235.576 202.942 238.089C203.733 239.327 209.359 259.689 215.446 283.339C221.533 306.989 227.238 327.749 228.125 329.471C230.924 334.906 238.11 336.546 242.837 332.828C244.242 331.722 246.104 328.91 246.972 326.578C251.177 315.293 285.55 199.046 285.55 196.111C285.55 188.839 276.728 185.168 271.078 190.089C268.872 192.01 266.543 199.122 255.129 238.775C242.067 284.153 240.709 287.839 237.05 287.839C233.525 287.839 232.217 284.128 221.016 242.339C214.677 218.689 209.017 197.869 208.437 196.072C206.39 189.724 197.753 187.822 192.622 192.589C189.917 195.102 188.661 199.082 178.021 238.839C171.618 262.764 165.733 283.351 164.942 284.589C164.091 285.92 162.502 286.839 161.05 286.839C159.593 286.839 158.018 285.925 157.173 284.589C156.391 283.351 150.25 262.989 143.527 239.339C131.242 196.12 129.962 192.256 127.155 189.926C124.431 187.666 118.275 187.429 115.754 189.489ZM309.316 190.757L306.05 193.674L305.779 259.998C305.58 308.554 305.818 327.072 306.667 329.121C309.32 335.525 317.572 336.971 322.627 331.916L325.55 328.993V292.998C325.55 273.2 325.836 256.256 326.186 255.344C327.198 252.708 331.441 251.533 333.935 253.198C335.161 254.017 343.611 269.789 354.039 290.724C370.391 323.553 372.333 326.983 375.392 328.434C378.306 329.817 379.247 329.851 382.404 328.685C385.932 327.383 386.667 326.105 405.05 289.339C425.135 249.169 425.248 249.002 430.498 251.811C432.51 252.888 432.55 253.626 432.55 289.473C432.55 320.408 432.788 326.539 434.098 329.299C437.007 335.43 444.463 336.676 449.784 331.921L453.05 329.003V261.995C453.05 195.53 453.033 194.963 450.954 192.163C447.942 188.105 442.704 186.981 438.431 189.476C435.481 191.199 432.287 197.214 409.916 243.171C396.06 271.636 384.179 295.581 383.514 296.382C381.868 298.366 378.199 298.217 376.288 296.089C375.424 295.127 363.424 271.614 349.622 243.839C332.617 209.618 323.559 192.453 321.523 190.589C317.528 186.933 313.535 186.988 309.316 190.757ZM622.907 188.784C617.358 191.144 617.55 188.525 617.55 261.925V329.566L620.186 332.203C623.267 335.283 629.695 335.826 633.289 333.31C636.979 330.725 637.539 325.757 637.544 295.557C637.551 264.095 637.748 262.795 643.383 257.16C649.112 251.431 654.913 249.338 665.05 249.344C675.398 249.35 680.825 251.268 686.473 256.916C693.635 264.078 693.97 265.847 694.54 299.511L695.05 329.683L697.474 332.261C699.362 334.269 700.866 334.839 704.27 334.839C709.572 334.839 713.082 331.85 714.09 326.476C714.46 324.503 714.553 310.84 714.295 296.114C713.79 267.188 713.051 262.205 707.852 252.653C704.716 246.89 696.526 238.888 690.748 235.94C676.483 228.663 656.403 229.69 643.526 238.355C640.679 240.271 638.169 241.839 637.95 241.839C637.73 241.839 637.547 232.277 637.544 220.589C637.539 198.616 636.859 193.334 633.668 190.446C631.403 188.396 625.84 187.537 622.907 188.784ZM780.826 232.35C771.364 234.406 761.494 240.075 754.664 247.376C745.177 257.518 740.537 269.505 740.565 283.799C740.607 305.376 751.166 322.979 769.242 331.611L777.05 335.339L807.67 335.653L838.289 335.968L841.17 333.488L844.05 331.009L844.039 302.174C844.028 274.696 843.919 273.033 841.737 266.839C835.405 248.866 821.075 236.178 802.713 232.286C794.579 230.562 788.981 230.578 780.826 232.35ZM909.428 233.148C905.786 234.389 900.274 237.317 897.178 239.654L891.55 243.904L891.518 240.621C891.439 232.421 881.459 228.776 875.473 234.762L872.55 237.685V283.808V329.93L875.005 332.384C876.898 334.278 878.509 334.839 882.05 334.839C885.591 334.839 887.202 334.278 889.095 332.384L891.55 329.93L891.556 299.134C891.559 280.731 891.983 266.819 892.61 264.562C895.914 252.664 910.509 246.315 928.922 248.765C938.438 250.032 941.584 249.255 943.44 245.182C945.064 241.616 944.836 240.333 941.975 236.932C936.77 230.746 921.636 228.987 909.428 233.148ZM990.55 232.402C972.344 236.333 957.772 250.37 953.042 268.532C950.857 276.921 951.095 292.156 953.535 300.056C960.584 322.876 983.231 337.491 1008.48 335.515C1025.14 334.211 1043.9 324.117 1042 317.475C1041.13 314.412 1035.91 309.839 1033.29 309.839C1032.06 309.839 1027.28 311.752 1022.67 314.089C1014.45 318.257 1014.09 318.339 1004.17 318.339C995.358 318.339 993.333 318.003 988.504 315.738C980.761 312.106 976.146 307.719 972.597 300.617C967.27 289.956 964.337 290.839 1005.08 290.839C1044.37 290.839 1046.4 290.568 1048.32 285.073C1048.98 283.163 1049.06 279.413 1048.52 274.632C1045.96 251.827 1033.08 236.604 1012.69 232.282C1004.52 230.55 998.987 230.58 990.55 232.402ZM1015.27 250.694C1022.91 254.596 1028.43 261.895 1030.42 270.75L1031.34 274.839H1000.44C980.738 274.839 969.55 274.481 969.55 273.85C969.55 271.557 973.603 262.459 976.057 259.241C979.471 254.766 985.413 250.855 991.353 249.174C997.971 247.301 1010.13 248.075 1015.27 250.694ZM807.366 252.335C816.973 257.564 822.592 265.672 824.6 277.203C826.664 289.055 823.134 301.02 815.248 308.906C808.785 315.369 804.445 317.144 793.892 317.639C785.716 318.023 784.147 317.801 779.272 315.569C771.876 312.183 766.512 307.101 762.989 300.143C760.292 294.817 760.05 293.474 760.05 283.839C760.05 274.594 760.362 272.682 762.659 267.839C766.757 259.202 774.122 252.813 783.55 249.716C784.925 249.265 789.656 249.021 794.062 249.175C800.673 249.406 803.001 249.959 807.366 252.335Z" fill="black"/>
</svg>
