<?xml version="1.0" standalone="yes"?>
<svg xmlns="http://www.w3.org/2000/svg" width="630" height="630">
<path style="fill:#f3f6f7; stroke:none;" d="M0 0L0 630L630 630L630 0L0 0z"/>
<path style="fill:#2b3137; stroke:none;" d="M159 59L159 101L141 101L141 121L128 121L128 144L110 144L110 160L128 160L128 209L154 209L154 194L180 194C178.817 198.97 179 203.919 179 209L205 209L205 159C209.228 160.007 216.589 161.411 220.682 159.397C224.097 157.716 224.24 147.28 221.397 145.028C217.988 142.328 209.167 144 205 144L205 121L192 121L192 101L175 101L175 59L159 59M372 85L372 207L390 206L390 106L432 106L432 167L450 167L450 85L372 85M268 110L268 135L239 134L239 225L64 225L64 445L95 445L95 411L112 411L112 445L169 445L169 411C156.568 408.046 146.204 397.591 143.518 385C142.487 380.169 143 374.913 143 370C143 359.302 143.957 350.484 151.326 342.039C159.362 332.83 170.225 330.142 182 331.093C221.746 334.306 222.623 405.211 184 411C185.655 415.987 190.46 415 195 415L228 415C228 401.3 224.463 382.068 232.133 370C242.699 353.379 266.697 355.357 274.009 374C278.704 385.969 276 402.362 276 415C291.91 415.339 305.661 429.081 306 445L355 445L355 134L328 135L328 110L268 110M467 121L467 137L549 137L549 121C532.368 122.313 515.708 122 499 122C488.433 122 477.419 122.934 467 121z"/>
<path style="fill:#f3f6f7; stroke:none;" d="M164 132.508C140.745 135.923 146.879 171.769 170 167.671C192.987 163.595 186.329 129.228 164 132.508z"/>
<path style="fill:#2b3137; stroke:none;" d="M467 150L467 167L486 167L486 207L519 206L519 287C519 295.321 521.982 310.616 516 317C519.699 318.552 524.017 318 528 318L549 318L549 208C549 189.214 546.568 168.488 550 150L467 150z"/>
<path style="fill:#f3f6f7; stroke:none;" d="M260 164L259 195L278 195C280.236 194.995 283.508 195.468 285.397 193.972C287.565 192.255 286.995 188.42 287 186L287 164L260 164M308 164L308 195L335 195L335 164L308 164z"/>
<path style="fill:#2b3137; stroke:none;" d="M407 184L407 207L469 206L469 184L407 184z"/>
<path style="fill:#f3f6f7; stroke:none;" d="M259 211L259 241L287 241L286 211L259 211M308 211L308 241L335 241L335 211L308 211z"/>
<path style="fill:#2b3137; stroke:none;" d="M372 223L372 445C375.579 445 382.294 446.284 385.272 443.972C388.611 441.381 389.727 433.687 392.09 430C399.054 419.138 411.081 412.275 424 412C418.548 407.435 411.743 404.704 407.468 398.711C400.834 389.412 402 378.802 402 368C402 359.743 401.618 352.405 405.88 345C408.601 340.271 412.395 336.476 417 333.559C419.472 331.994 423.14 331.124 424.821 328.582C426.706 325.73 426 321.25 426 318L498 318L498 304L502 304L503 223L372 223z"/>
<path style="fill:#f3f6f7; stroke:none;" d="M388 241L388 263L487 263L487 241L388 241M74 254L74 279L117 279L117 254L74 254M136 254L136 279L180 279L180 254L136 254M259 257L259 287L287 287L287 257L259 257M308 257L308 287L335 287L335 257L308 257M388 283C388 287.997 387.91 293.003 388.005 297.999C388.042 299.981 387.864 302.594 389.603 303.972C391.492 305.468 394.764 304.995 397 305L415 305L487 305L487 283L388 283M74 300L74 325L117 325L117 300L74 300M136 300L136 325L180 325L180 300L136 300M259 303L259 334L287 334L287 303L259 303M308 303L308 334L335 334L335 303L308 303z"/>
<path style="fill:#2b3137; stroke:none;" d="M454 335C458.029 340.153 462.704 344.62 464.892 351C466.815 356.61 466 363.156 466 369C466 374.852 466.711 381.25 465.482 387C462.602 400.477 450.769 409.045 438 412C441.668 414.776 446.22 416.082 450 418.789C458.528 424.896 464.751 434.379 465 445L498 445L498 335L454 335M515 335L515 445L549 445L549 413C557.832 413 567.236 413.926 576 412.815C579.924 412.317 584.329 410.507 584.663 405.988C585.002 401.396 580.967 399.05 576.999 398.329C568.121 396.718 558.014 398 549 398L549 390C557.914 390 569.392 391.937 577.999 389.566C581.698 388.548 585.308 385.167 584.508 381.015C583.701 376.833 579.792 375.282 576 375.044C567.069 374.484 557.949 375 549 375L549 366C558.176 366 567.882 366.915 576.999 365.891C580.723 365.473 584.543 363.215 584.543 359C584.543 354.785 580.723 352.527 576.999 352.109C567.882 351.085 558.176 352 549 352L549 335L515 335M428 343.558C416.683 346.532 417 357.564 417 367C417 373.225 415.766 381.011 417.653 386.999C420.456 395.898 430.734 399.137 439 396.945C451.5 393.63 451 382.523 451 372C451 366.353 452.054 359.441 450.347 354C447.401 344.606 436.854 341.231 428 343.558M172 345.529C159.544 348.408 158 359.193 158 370C158 374.874 157.343 380.312 158.92 385C162.031 394.248 171.674 399.35 181 397.33C194.626 394.379 196.999 383.168 197 371C197 366.382 197.494 361.413 195.867 357.001C192.337 347.429 181.53 343.327 172 345.529z"/>
<path style="fill:#f3f6f7; stroke:none;" d="M308 349L308 380L335 380L335 349L308 349M432.043 351.697C422.772 354.167 426.663 368.044 435.981 365.562C444.654 363.251 440.676 349.396 432.043 351.697z"/>
<path style="fill:#2b3137; stroke:none;" d="M245 415L260 415C258.861 405.991 259.001 397.079 259 388C259 384.503 259.811 379.482 257.258 376.653C253.368 372.343 246.713 374.854 245.314 380.015C242.262 391.272 244.512 403.629 245 415z"/>
<path style="fill:#f3f6f7; stroke:none;" d="M430.109 375.029C422.172 379.453 428.965 392.037 436.941 387.816C445.293 383.398 438.542 370.327 430.109 375.029z"/>
<path style="fill:#2b3137; stroke:none;" d="M403 445L450 445C444.247 422.238 408.536 421.973 403 445M185 431L185 445L290 445C288.697 432.369 275.649 430.052 265 430.001C238.271 429.872 211.697 431 185 431M64 461L64 488L178 487L183 461L64 461M199 461C198.625 469.741 196.073 478.237 196 487L207 487L206 500L193 500C192.032 522.549 184.774 544.555 183 567L408 567C404.85 554.215 403.909 540.942 401.576 528C397.605 505.979 392.763 483.308 391 461L199 461M408 461C408.187 470.061 410.859 479.018 412 488C431.291 488 450.642 487 470 487C479.134 487 489.077 485.875 498 488L498 461L408 461M515 461C515 468.6 514.513 476.38 515.054 483.961C515.302 487.428 516.963 490.477 516.963 494C516.963 497.234 515.507 499.95 515.129 503.09C514.66 506.984 515 511.081 515 515L558 515C558.001 520.082 558.602 524.955 559 530L456 530L456 515L498 515L498 500L414 500C415.46 504.604 416.391 509.21 417 514L435 514L438 529L420 529C420.186 533.324 419.998 543.07 423.728 545.972C427.473 548.887 437.421 547 442 547C442.551 553.746 444.711 560.355 446 567L579 567L579 526C579 517.342 578.414 508.541 580 500L547 500L547 487L579 487C579 478.342 578.414 469.541 580 461L515 461z"/>
<path style="fill:#f3f6f7; stroke:none;" d="M266 487L266 500L323 500L323 487L266 487z"/>
<path style="fill:#2b3137; stroke:none;" d="M64 500L64 567L144 567C144.598 562.369 145.282 551.866 149.433 549.028C153.434 546.292 162.311 548 167 548C168.224 541.69 169.867 535.45 170 529L152 529C152.879 524.752 153.628 516.547 158.144 514.603C162.338 512.799 168.699 515.879 172.397 512.972C175.123 510.83 175.322 503.285 176 500L64 500z"/>
</svg>
