<?xml version="1.0" standalone="yes"?>
<svg xmlns="http://www.w3.org/2000/svg" width="630" height="630">
<path style="fill:#dde5e7; stroke:none;" d="M0 0L0 630L630 630L630 0L0 0z"/>
<path style="fill:#1a2d38; stroke:none;" d="M244 92C235.259 90.3531 226.983 88.3005 218 89.1697C195.024 91.3932 174.128 106.561 163.756 127C161.158 132.12 158.578 137.234 158 143C172.2 143 184.315 145.006 196.999 151.782C202.156 154.536 209.755 161.24 201.891 166.215C198.498 168.361 195.076 166.249 192 164.586C186.733 161.739 180.98 159.042 175 158.17C153.988 155.105 133.787 158.704 117 172.465C81.3952 201.65 78.3252 255.555 111.001 287.996C117.199 294.15 123.88 299.104 132 302.396C145.868 308.018 160.321 307 175 307L237 307L408 307L459 307C470.774 307 482.537 307.844 494 304.711C525.245 296.173 547.886 261.108 544.83 229C542.374 203.189 529.661 180.44 507 167.015C501.656 163.848 495.908 161.284 490 159.358C486.678 158.275 482.109 158.124 479.564 155.486C477.089 152.92 476.717 148.313 475.873 145C474.541 139.776 472.417 134.867 470.111 130C463.177 115.363 451.151 104.144 437 96.6404C428.236 91.9936 417.01 88.7233 407 89.0432C402.225 89.1958 393.615 93.1155 389.464 90.3063C385.597 87.6896 382.939 82.4547 379.829 79C374.097 72.6315 367.466 66.6175 360 62.3372C327.826 43.8916 285.012 46.2808 258 73.0038C252.339 78.6041 246.782 84.4128 244 92z"/>
<path style="fill:#dde5e7; stroke:none;" d="M359 144C352.035 119.822 324.507 102.119 300 102.001C290.282 101.954 280.901 103.524 272.004 107.67C267.629 109.708 263.56 113.617 265.746 118.891C267.15 122.277 270.692 123.178 274 122.347C281.489 120.466 288.022 116.468 296 116.104C313.539 115.305 329.92 125.563 340.32 139C343.268 142.808 348.254 148.948 348.332 154C348.404 158.658 343.718 162.962 341.826 167C339.705 171.526 340.32 179.543 347.012 179.543C351.408 179.543 353.448 175.267 355.309 171.999C357.986 167.297 361.206 162.872 365.039 159.039C375.864 148.215 394.46 140.347 410 142.29C428.872 144.65 445.374 153.163 457.535 168C461.508 172.846 463.407 178.786 467.074 183.656C469.76 187.223 474.624 187.562 477.397 183.852C480.365 179.879 478.167 174.868 476.239 171C471.156 160.8 463.026 151.396 454 144.503C432.984 128.453 404.967 123.782 380 132.698C372.394 135.415 365.812 139.8 359 144M277 167.425C265.142 169.039 254.242 172.777 245.094 180.808C240.757 184.615 237.454 193.83 246.04 195.297C251.625 196.251 257.444 189.241 262 186.796C269.901 182.555 279.117 181.121 288 182.289C293.982 183.076 299.908 185.327 305 188.545C309.038 191.096 313.698 195.855 318.956 194.664C330.054 192.15 319.248 180.71 314.999 177.721C304.347 170.229 290.087 165.644 277 167.425M183 196.429C160.73 199.503 142.23 211.491 132.259 232C128.823 239.068 125.755 248.028 126.059 256C126.21 259.977 128.314 264.614 132.988 264.493C136.232 264.409 138.119 261.847 138.811 258.96C141.041 249.658 142.645 241.097 148.221 233C155.098 223.013 165.34 215.464 177 212.043C182.263 210.499 189.02 212.247 193.655 208.91C197.756 205.958 196.556 200.674 192.786 198.009C189.878 195.953 186.376 195.963 183 196.429M459 206.439C443.101 208.917 428.954 217.061 420.464 231C417.583 235.73 413.43 242.214 414.164 247.999C414.589 251.353 417.195 254.893 420.958 254.418C425.968 253.786 427.36 246.626 429.465 243C433.587 235.897 439.587 229.12 447 225.377C457.416 220.119 468.927 219.42 480 222.58C485.555 224.166 494.11 231.329 499.852 227.971C507.35 223.588 499.496 215.511 494.999 212.877C484.366 206.647 471.147 204.546 459 206.439M360 213.44C353.692 214.456 344.872 217.578 340.434 222.39C337.343 225.739 337.215 232.39 342.109 234.218C346.807 235.972 351.931 231.62 356 229.879C361.934 227.34 368.582 226.406 375 227.184C381.048 227.918 387.954 233.907 393.956 232.523C402.492 230.555 398.054 220.798 392.985 217.905C383.425 212.45 370.701 211.717 360 213.44M246 215.439C224.95 218.727 207.58 231.829 198.259 251C194.891 257.927 191.778 266.19 192.023 274C192.156 278.229 194.122 282.14 198.985 281.793C206.078 281.288 205.31 271.007 207.09 266C211.165 254.536 218.799 243.897 229 237.105C240.526 229.431 254.614 227.396 268 230.529C274.489 232.047 283.081 240.116 289.891 237.393C299.472 233.562 289.733 224.27 285 221.785C273.326 215.655 259.05 213.401 246 215.439z"/>
<path style="fill:#1a2d38; stroke:none;" d="M155.019 325.758C144.62 329.55 150.565 346.708 160.895 342.141C170.05 338.094 164.771 322.201 155.019 325.758M211.148 326.032C208.917 327.316 208.269 329.599 208.059 332.001C207.53 338.026 206.692 347.094 208.434 352.906C209.557 356.653 213.384 358.516 216.891 356.548C223.126 353.048 222.336 336.108 220.566 330.044C219.423 326.124 214.87 323.888 211.148 326.032M259.005 325.758C248.949 329.352 253.712 346.151 263.981 342.253C273.786 338.532 269.077 322.157 259.005 325.758M315.228 326.032C309.869 329.218 311.965 340.758 312.001 346C312.014 347.94 311.861 350.103 312.603 351.941C314.014 355.434 318.383 356.884 321.606 354.82C326.846 351.465 325.027 341.248 324.999 336C324.987 333.751 325.168 331.225 324.258 329.109C322.818 325.76 318.466 324.106 315.228 326.032M371.094 325.873C361.7 329.734 366.674 346.291 376.956 342.254C386.421 338.538 381.171 321.732 371.094 325.873M421.015 325.758C410.963 329.397 415.86 345.908 425.985 342.242C436.037 338.603 431.14 322.092 421.015 325.758M284.133 336.801C279.043 338.538 278.713 347.648 277.625 352C274.883 362.969 263.94 389.232 284 390.877C286.298 391.066 288.833 390.77 290.999 389.968C307.612 383.811 296.02 360.577 293.349 349C292.371 344.764 290.78 334.532 284.133 336.801M344.513 338.029C340.774 340.652 340.661 348.909 339.789 353C337.977 361.508 332.973 371.178 334.217 380C335.71 390.587 347.041 395.869 355.957 390.005C366.112 383.327 360.843 371.183 358.478 362C357.278 357.338 356.33 352.633 355 348C353.798 343.814 351.222 333.322 344.513 338.029M175.133 344.086C170.79 346.166 170.271 353.909 169.025 358C166.428 366.522 161.967 378.071 163.189 387C164.493 396.529 174.543 401.207 182.996 397.347C198.236 390.389 187.203 367.453 184.269 356C183.274 352.119 181.67 340.957 175.133 344.086M465.274 346.047C460.722 348.647 460.815 356.538 459.764 361C457.588 370.239 452.463 380.311 454.228 390C455.959 399.498 467.252 403.065 474.96 398.467C489.019 390.08 477.275 367.959 474.575 356C473.691 352.087 471.323 342.592 465.274 346.047M406.108 349.137C401.35 351.228 400.967 359.625 399.873 364C397.671 372.812 392.77 382.751 394.214 392C395.626 401.047 405.477 406.747 413.961 402.91C429.811 395.743 417.697 372.672 415.211 361C414.348 356.95 412.875 346.162 406.108 349.137M379.109 359.851C375.179 361.047 375.051 365.636 375.004 369C374.879 377.952 373.729 388.146 375.148 396.985C375.689 400.355 378.29 403.12 381.957 402.377C385.138 401.733 386.552 398.939 386.891 395.985C387.61 389.724 386.659 383.289 387.09 377C387.335 373.411 388.576 369.591 387.681 366.004C386.803 362.482 383.054 358.65 379.109 359.851M212.059 370.072C205.807 373.073 207.988 384.397 208 390C208.005 392.239 207.746 394.818 208.603 396.941C209.932 400.232 213.725 401.684 216.891 399.968C222.982 396.666 222.204 380.815 220.566 375.015C219.556 371.438 215.884 368.236 212.059 370.072M315.393 383.043C310.963 385.74 310.839 393.516 309.88 398C307.997 406.802 302.763 415.783 304.214 425C305.745 434.727 316.714 439.478 324.985 434.633C338.884 426.489 328.096 404.744 325.127 393C324.112 388.989 321.72 379.192 315.393 383.043M237.303 386.032C234.351 387.868 233.67 392.903 232.895 396C230.562 405.319 223.682 419.516 226.653 429C229.294 437.431 239.309 441.699 246.985 436.991C260.983 428.404 249.814 407.954 247.21 396C246.279 391.725 243.946 381.901 237.303 386.032M437.019 410.785C426.942 414.184 431.932 431.732 441.96 428.098C452.061 424.438 447.451 407.267 437.019 410.785M190.015 411.758C180.703 415.13 184.355 431.552 193.996 428.238C204.353 424.679 200.355 408.014 190.015 411.758M349.144 412.047C344.608 414.472 343.816 423.473 342.909 428C341.272 436.163 335.994 445.585 337.218 454C338.661 463.921 349.335 469.43 357.985 464.583C372.183 456.625 361.291 434.668 358.65 423C357.695 418.78 356.001 408.382 349.144 412.047M277.214 413.047C272.502 415.608 272.428 423.427 271.346 428C269.467 435.94 264.55 444.685 265.225 453C266.032 462.946 277.008 470.092 285.996 464.91C300.26 456.688 290.265 436.928 287.011 425C285.878 420.846 284.345 409.171 277.214 413.047M377.148 417.029C375.272 418.124 374.475 419.943 374.148 422.005C373.305 427.321 372.732 436.947 374.742 441.981C376.169 445.553 380.132 447.959 383.772 445.816C389.135 442.658 387.035 431.233 386.999 426C386.986 424.06 387.139 421.897 386.397 420.059C384.961 416.504 380.467 415.09 377.148 417.029M153.224 425.047C149.599 427.056 149.168 432.404 148.35 436C147.126 441.376 146.041 446.751 144.33 452C142.534 457.513 139.974 463.144 141.804 469C144.388 477.27 154.156 482.426 161.996 477.91C176.665 469.462 166.212 449.328 163.127 437C162.098 432.893 160.044 421.269 153.224 425.047M473.279 425.032C468.916 427.68 468.464 436.501 467.551 441C465.786 449.698 460.801 458.953 462.214 468C463.833 478.366 475.598 482.503 483.957 477.005C497.571 468.052 484.905 445.931 482.751 434C481.971 429.68 479.552 421.226 473.279 425.032M416.104 428.086C410.71 430.62 410.853 439.084 409.66 444C407.463 453.059 402.588 462.436 404.225 471.999C405.699 480.615 415.208 485.047 422.999 481.772C439.631 474.781 428.264 452.252 425.346 440C424.422 436.122 422.314 425.17 416.104 428.086M209.147 430.047C204.954 432.316 204.837 439.896 203.707 444C201.443 452.217 195.979 464.5 197.569 473C199.346 482.506 209.029 488.76 217.985 484.16C233.43 476.229 221.952 453.247 219 441C217.996 436.834 215.651 426.527 209.147 430.047M315.228 452.032C313.08 453.309 312.371 455.667 312.109 458.001C311.462 463.746 310.839 472.404 312.434 477.981C313.515 481.762 317.253 483.915 320.941 481.968C327.089 478.721 326.275 461.899 324.566 456.044C323.442 452.191 318.907 449.844 315.228 452.032M377.318 459.029C374.986 460.563 375.062 463.526 375.004 466C374.866 471.833 372.464 479.366 374.742 484.956C376.243 488.638 380.347 490.776 383.891 488.381C389.913 484.313 387.741 475.971 387.17 470C386.925 467.437 387.38 464.493 386.397 462.059C385.034 458.684 380.508 456.929 377.318 459.029M498.133 466.047C493.662 468.407 493.04 475.652 491.848 480C489.477 488.652 484.661 497.823 486.225 507C487.77 516.073 497.895 521.151 505.985 517C521.042 509.275 510.993 489.824 507.884 478C506.777 473.787 505.161 462.337 498.133 466.047M130.13 467.047C125.551 469.487 125.269 476.603 123.964 481C121.45 489.468 116.687 498.966 118.225 508C119.763 517.037 129.977 522.062 137.996 518C153.471 510.162 143.299 491.055 139.721 479C138.527 474.977 136.933 463.421 130.13 467.047M242.108 473.89C236.845 475.24 235.716 486.589 235 491C233.767 498.591 229.177 506.269 229.187 514C229.199 523.379 237.728 530.863 247 528.442C265.889 523.51 254.058 499.989 251.235 488C250.23 483.735 249.012 472.12 242.108 473.89M445.394 474.043C441.229 476.589 441.279 483.802 440.258 488C438.169 496.586 432.807 507.089 434.329 516C435.999 525.771 445.903 532.136 454.996 526.772C469.945 517.953 458.526 497.591 455.373 485C454.357 480.941 452.077 469.958 445.394 474.043M180.278 475.032C177.129 476.952 176.723 481.774 175.849 485C174.045 491.658 172.469 498.366 170.579 505C169.374 509.229 167.634 513.574 168.804 518C171.416 527.884 182.267 532.72 190.957 527.005C204.218 518.284 192.396 496.588 189.793 485C188.856 480.827 186.782 471.068 180.278 475.032M290.109 480.786C287.396 481.762 286.408 484.364 286.109 487.004C285.393 493.316 284.212 505.022 286.603 510.941C287.781 513.858 290.924 515.432 293.956 514.377C301.396 511.789 299.003 499.027 299 493C298.999 490.451 299.35 487.468 298.397 485.044C297.148 481.868 293.51 479.563 290.109 480.786M349.224 484.786C344.798 486.5 343.658 494.987 342.63 499C340.461 507.462 335.76 518.233 337.329 527C338.776 535.081 346.957 540.962 355 537.851C372.349 531.14 361.837 510.455 358.884 498C357.821 493.516 356.73 481.879 349.224 484.786M413.224 507.032C408.783 509.624 407.902 518.418 406.92 523C405.18 531.118 400.333 539.497 401.2 548C402.293 558.714 413.636 565.03 422.96 559.467C436.898 551.151 425.824 529.777 423 518C421.962 513.669 420.13 503.001 413.224 507.032M213.133 508.086C208.407 510.341 207.818 518.555 206.765 523C204.675 531.829 199.774 541.779 201.214 551C202.683 560.413 212.512 565.612 220.996 561.312C236.355 553.526 225.448 532.946 222.475 521C221.481 517.003 220.189 504.719 213.133 508.086M378.148 509.046C375.206 510.658 375.06 514.041 375.005 517C374.86 524.711 373.158 535.502 375.434 542.891C376.521 546.424 380.657 547.811 383.852 545.968C389.886 542.489 386.688 527.905 387.09 522C387.266 519.4 388.145 516.623 387.447 514.04C386.436 510.297 381.971 506.953 378.148 509.046M316.059 520.047C310.147 523.006 310.605 538.629 312.742 543.981C314.083 547.338 317.435 549.559 320.941 547.802C326.769 544.881 326.461 529.376 324.397 524.019C323.121 520.71 319.516 518.317 316.059 520.047M155.133 524.086C150.325 526.381 150.022 534.534 148.846 539C146.771 546.877 141.769 556.82 142.391 565C143.153 575.019 153.996 581.395 162.996 577.08C178.502 569.646 167.264 547.923 164.576 536C163.674 531.997 161.668 520.967 155.133 524.086M474.224 523.801C469.777 525.391 468.771 534.07 467.735 538C465.383 546.92 460.263 558.721 462.394 568C464.098 575.417 472.744 580.656 480 577.851C497.333 571.152 486.902 550.387 483.731 538C482.632 533.702 481.629 521.153 474.224 523.801M271.213 531.801C266.54 533.45 266.113 541.954 265.011 546C262.707 554.456 258.091 565.17 259.305 574C260.525 582.877 269.186 589.307 277.999 585.852C294.416 579.417 283.548 556.687 280.627 545C279.576 540.797 278.078 529.378 271.213 531.801M338.109 556.043C332.089 559.225 332.788 574.382 334.653 579.956C335.928 583.768 340.06 586.155 343.852 583.968C345.731 582.885 346.526 581.051 346.852 578.995C347.671 573.826 348.344 563.96 346.258 559.109C344.908 555.97 341.227 554.395 338.109 556.043M437.094 558.913C430.251 561.39 430.51 576.391 432.742 581.981C434.038 585.226 437.365 587.586 440.891 586.238C447.015 583.899 445.034 573.108 444.999 568C444.986 566.112 445.158 563.968 444.397 562.189C443.201 559.396 439.988 557.865 437.094 558.913M190.148 560.043C185.26 562.756 185.741 578.331 187.603 582.941C188.932 586.232 192.725 587.684 195.891 585.968C201.436 582.962 201.448 569.26 199.397 564.044C198.038 560.589 193.674 558.086 190.148 560.043M371.015 566.758C360.401 570.6 365.793 588.052 376.815 583.258C386.022 579.253 380.86 563.194 371.015 566.758M304.105 567.746C294.846 571.532 300.24 587.978 309.957 584.127C320.258 580.043 314.351 563.557 304.105 567.746M229.004 568.677C219.117 570.555 220.399 587.248 230.996 585.752C241.903 584.213 240.025 566.584 229.004 568.677M398.094 568.758C388.61 572.418 393.633 589.211 403.981 585.393C414.47 581.523 408.326 564.809 398.094 568.758z"/>
</svg>
